<?xml version="1.0" encoding="iso-8859-1"?>
<!-- Generator: Adobe Illustrator 16.0.0, SVG Export Plug-In . SVG Version: 6.00 Build 0)  -->
<!DOCTYPE svg PUBLIC "-//W3C//DTD SVG 1.1//EN" "http://www.w3.org/Graphics/SVG/1.1/DTD/svg11.dtd">
<svg version="1.1" id="Capa_1" xmlns="http://www.w3.org/2000/svg" xmlns:xlink="http://www.w3.org/1999/xlink" x="0px" y="0px"
	 width="42.584px" height="42.584px" viewBox="0 0 42.584 42.584" style="enable-background:new 0 0 42.584 42.584;"
	 xml:space="preserve">
<g>
	<path d="M35.042,16.72V1c0-0.552-0.447-1-1-1h-25.5c-0.554,0-1,0.448-1,1v15.719c-1.04,0.604-1.75,1.729-1.75,3.032v19.333
		c0,1.932,1.54,3.5,3.434,3.5h24.13c1.896,0,3.437-1.568,3.437-3.5V19.751C36.792,18.448,36.081,17.322,35.042,16.72z
		 M33.042,16.167h-7.654c0.943,1.006,1.525,2.355,1.525,3.841v5.534c0,0.688-0.559,1.25-1.25,1.25c-0.689,0-1.25-0.562-1.25-1.25
		v-5.534c0-1.722-1.398-3.123-3.122-3.123c-1.722,0-3.122,1.401-3.122,3.123v5.534c0,0.688-0.56,1.25-1.25,1.25
		s-1.25-0.562-1.25-1.25v-5.534c0-1.485,0.583-2.834,1.527-3.841H9.544V2h23.497V16.167z M24.344,15.261h1.592
		c0.299,0,0.584-0.061,0.844-0.168c0.607,0.549,1.304,0.77,1.601,0.473c0.295-0.293,0.08-0.972-0.452-1.574
		c0.137-0.284,0.217-0.597,0.217-0.932V7.899c0-0.334-0.08-0.647-0.217-0.931c0.532-0.603,0.747-1.282,0.452-1.575
		c-0.297-0.297-0.987-0.076-1.601,0.473c-0.26-0.108-0.545-0.168-0.844-0.168h-9.29c-0.299,0-0.583,0.061-0.843,0.168
		c-0.608-0.548-1.301-0.77-1.599-0.472c-0.293,0.293-0.08,0.972,0.453,1.574c-0.133,0.284-0.213,0.597-0.213,0.931v5.161
		c0,0.334,0.08,0.647,0.213,0.931c-0.533,0.603-0.747,1.282-0.453,1.575c0.297,0.297,0.991,0.076,1.599-0.473
		c0.26,0.108,0.544,0.168,0.843,0.168h1.594v0.053c-0.377,0.248-0.734,0.524-1.043,0.853h8.19c-0.309-0.328-0.666-0.605-1.043-0.853
		V15.261z M21.292,8.479c1.727,0,3.125,1.399,3.125,3.125s-1.398,3.125-3.125,3.125c-1.726,0-3.125-1.399-3.125-3.125
		S19.564,8.479,21.292,8.479z"/>
</g>
<g>
</g>
<g>
</g>
<g>
</g>
<g>
</g>
<g>
</g>
<g>
</g>
<g>
</g>
<g>
</g>
<g>
</g>
<g>
</g>
<g>
</g>
<g>
</g>
<g>
</g>
<g>
</g>
<g>
</g>
</svg>
