<svg width="1990" height="1990" xmlns="http://www.w3.org/2000/svg">

  <g>
    <title>background</title>
    <rect fill="none" id="canvas_background" height="402" width="582" y="-1" x="-1"/>
  </g>
  <g>
    <title>Layer 1</title>
    <path
      d="m934,439c-8.91,10.38 -17.18,24.4 -22.57,37c-23.17,54.15 -7.76,110.12 13.58,162c10.18,24.74 28.47,63.02 33.78,88c1.95,9.17 2.65,18.68 3.3,28c0,0 0.91,11 0.91,11c0.17,37.21 -4.27,77.91 -26.74,109c-18.95,26.21 -54.14,45.78 -85.26,27.65c-6.69,-3.9 -19.55,-16.47 -24.25,-22.65c-14.74,-19.37 -25.36,-41.47 -34.3,-64c-8.8,-22.18 -22.25,-67.55 -27.24,-91c0,0 -6.81,-33 -6.81,-33c-1,-4.97 -1.75,-12.93 -4.4,-17c-9.72,13.69 -17.26,24.44 -24.14,40c-10.63,24.05 -16.21,49.92 -18.82,76c0,0 0,10 0,10c0,0 -1.04,10 -1.04,10c0,0 0,8 0,8c0,0 1.04,10 1.04,10c0,0 0,10 0,10c3.75,37.98 12.33,70.29 28.27,105c0,0 17.41,32 17.41,32c0,0 25.53,47 25.53,47c6.48,12.97 15.4,31.38 15.74,46c0.4,17.67 -9.93,26.48 -23.99,35.19c-19.19,11.9 -40.5,19.45 -58.91,1.64c-9.38,-9.07 -15.26,-24.34 -18.46,-36.83c-7.58,-29.6 -6.63,-53.1 -6.63,-83c0,0 -12.86,27 -12.86,27c0,0 -20.47,51 -20.47,51c-5.89,17.66 -12.8,40.82 -16.21,59c-2.22,11.85 -6.44,41.6 -6.46,53c0,0 -0.91,19 -0.91,19c-0.24,4.29 0.56,6.13 0.87,10c0,0 0,12 0,12c0,0 0.96,10 0.96,10c2.27,28.37 11.14,55.47 21.03,82c17.91,48.06 46.56,96.86 82.09,134c10.47,10.95 22,20.24 33.96,29.43c0,0 26,18.88 26,18.88c31.31,20.16 72.3,37.78 109,44.69c0,0 -20,-10.31 -20,-10.31c0,0 -19,-10.69 -19,-10.69c3.89,-6.76 7.16,-12.48 13.01,-17.9c3.66,-3.38 7.49,-5.25 11.99,-7.24c6.58,-2.91 10.82,-4 18,-4.54c4.35,-0.32 14.43,1.57 19,2.48c14.07,2.81 40.46,10.47 53,10.19c18.16,-0.42 37.5,-10.39 55,-15.25c23.36,-6.48 40.29,-3.99 63,-13.19c14.06,-5.7 24.85,-15.7 36,-25.6c4.08,-3.62 16.09,-11.65 17.83,-14.97c3.65,-6.93 -0.1,-19.84 -2.12,-26.98c0,0 -3.45,-17 -3.45,-17c-3.16,-12.57 -7.46,-24.97 -12.26,-37c-8.16,-20.46 -21,-48.29 -33.75,-66c-7.29,-10.14 -11.68,-12.78 -19.08,-21c0,0 -16.16,-20 -16.16,-20c0,0 -19.59,-28 -19.59,-28c-4.01,-6.44 -7.25,-13.42 -12.51,-18.99c-13.74,-14.55 -38.62,-21.5 -57.91,-24.28c0,0 -15,-1.73 -15,-1.73c-9.39,-0.11 -24.49,-1.86 -33,1.97c-10.61,4.78 -16.11,25.29 -17.8,36.03c-0.86,4.42 -2.04,9.76 0,13.96c2.93,5.49 7.14,5.45 11.71,7.53c5.62,2.56 11.95,11.46 20.09,2.51c9.15,7.4 8.92,3.55 16,4.85c3.69,0.67 5.97,2.43 10,1.48c8.75,-2.07 14.96,-11.38 25.99,-2.8c10.35,8.06 20.73,30.9 25.01,43.47c12.82,37.64 11.65,63.69 22.69,94c0,0 5.31,12 5.31,12c-9.62,-6.41 -17.38,-12.27 -29,-15c0,0 11,19 11,19c-9.39,-9.39 -16.01,-16.24 -28,-22.52c-22.59,-11.82 -52.45,-11.95 -76,-3.06c-15.67,5.92 -21.6,10.64 -35,19.58c0,0 18,-22 18,-22c-11.06,2.68 -16.37,-2.66 -26,-6.55c-7.36,-2.97 -22.07,-6.35 -30,-6.45c-16.35,-0.19 -24.28,0.77 -39,8.79c-4.71,2.57 -14.98,12.9 -19.01,12.46c0,0 -20.99,-8.4 -20.99,-8.4c-2.84,-1.23 -6.05,-2.23 -7.69,-5.06c-1.47,-2.56 -1.32,-7.67 -1.73,-10.79c0,0 -0.58,-34 -0.58,-34c0.1,-8.06 3.24,-26.81 5.12,-35c9.57,-41.59 25.41,-71.86 53.6,-104c15.17,-17.3 24.57,-23.18 24.28,-48c0,0 -14,-79 -14,-79c-0.16,-14.37 -0.12,-25.03 4.34,-39c3.82,-11.97 7.1,-19.39 14,-30c13.05,-20.04 33.15,-36.14 55.66,-44.31c16.15,-5.86 35.92,-8.15 53,-9.86c0,0 15,-0.92 15,-0.92c0,0 12,-0.91 12,-0.91c0,0 17,0 17,0c0,0 10,0.91 10,0.91c0,0 25,1.94 25,1.94c42.15,5.03 76.16,16.27 100.31,54.15c6.74,10.59 9.98,18.09 13.67,30c4.15,13.45 4.18,24.2 4.02,38c0,0 -14,79 -14,79c-0.34,29.01 15.64,36.65 32.39,57c14.21,17.28 27.73,41.1 35.8,62c22.02,57.01 19.89,127.1 -7.56,182c-13.7,27.4 -27.05,44.43 -48.63,66c-16.29,16.28 -35.4,29.92 -56,40.25c-6.35,3.18 -18.45,8.98 -25,10.75c3.86,1.09 9.01,-0.56 13,-1.25c0,0 29,-6.38 29,-6.38c42.82,-10.7 87.49,-31.4 122,-58.97c0,0 22.83,-19.68 22.83,-19.68c38.54,-37.56 70.22,-95.51 83.28,-147.72c9.36,-37.45 12.83,-75.52 12.89,-114c0,0 0.99,-14 0.99,-14c0,0 -0.99,-17 -0.99,-17c0,0 0,-18 0,-18c0,0 -1,-13 -1,-13c-0.26,-22.67 -4.07,-51.39 -7.58,-74c-5.24,-33.79 -10.63,-61.02 -23.42,-93c-1.5,3.78 -0.96,7.98 -1,12c0,0 -1,15 -1,15c-0.03,16.5 -3.05,52.35 -7,68c-13.82,-24.28 -31.77,-59.5 -39.72,-86c-3.37,-11.25 -7.2,-27.31 -7.2,-39c0,0 0.83,-8 0.83,-8c1.55,-22.15 7.6,-37.42 14.75,-58c0,0 10.45,-35 10.45,-35c2.92,-11.69 4.85,-23.98 5.71,-36c0,0 -0.88,-10 -0.88,-10c0,0 0,-9 0,-9c-3.08,-31.04 -17.4,-57.03 -36.54,-81c-7.76,-9.72 -16.67,-18.24 -26.4,-26c-4.68,-3.73 -9.39,-7.82 -15,-10c0,0 20.67,54 20.67,54c3.99,11.99 7.95,27.37 5.72,40c-4.59,25.93 -22.09,40.7 -34.94,62c-10.6,17.58 -19.42,43.34 -19.45,64c0,0 0,8 0,8c-1.77,-6.24 -0.3,-7.18 -3.02,-16c-4.51,-14.54 -17.67,-35.18 -29.98,-44c0,42.42 -12.69,85.78 -55,104c1.44,-5.05 1.64,-11.71 2.17,-17c0,0 1.83,-17 1.83,-17c0,0 0,-11 0,-11c0,0 1,-10 1,-10c0,0 0,-5 0,-5c0,0 -0.96,-12 -0.96,-12c0,0 0,-11 0,-11c0,0 -1.88,-20 -1.88,-20c-2.25,-21.12 -7.67,-48.23 -15.52,-67.91c0,0 -3.6,-7.13 -3.6,-7.13c0,0 -5.73,-12.96 -5.73,-12.96c-5.97,-13.02 -12.29,-25.89 -20,-38c-20.03,-31.44 -45.18,-58.3 -67.42,-88c-10.91,-14.58 -29.29,-45.46 -37.78,-62c-11.36,-22.1 -26.07,-61.19 -26.07,-86c0,0 0,-16 0,-16c0.31,-3.78 1.74,-7.26 0.96,-11zm44,525.21c0,0 -11,0.96 -11,0.96c-23.18,2.21 -46.67,4.15 -64.96,20.27c-3.57,3.14 -7.84,8.58 -10.52,12.56c-3.92,5.83 -6.09,11.35 -8.17,18c-2.75,8.76 -2.45,14.03 -2.35,23c0.08,6.77 2.24,15.2 3.6,22c2.53,12.63 3.79,33.25 15.44,40.52c10.55,6.58 20.33,2.35 30.96,-0.8c0,0 22,-5.47 22,-5.47c26.83,-4.67 56.13,-4.69 83,0c0,0 24,5.47 24,5.47c7.71,2.3 13.65,5.21 22,3.98c18.72,-2.76 19.96,-16.48 23,-31.7c5.69,-28.47 12.43,-49.6 -5.36,-76c-4.73,-7.02 -6.99,-8.91 -13.64,-13.87c-18.76,-14.01 -34.72,-14.91 -57,-17.29c0,0 -24,-1.63 -24,-1.63c0,0 -27,0 -27,0zm-86,415.79c0,0 0,1 0,1c0,0 -1,-1 -1,-1c0,0 1,0 1,0zm158,2c0,0 0,1 0,1c0,0 -1,-1 -1,-1c0,0 1,0 1,0zm1,1c0,0 0,1 0,1c0,0 -1,-1 -1,-1c0,0 1,0 1,0zm1,1c0,0 0,1 0,1c0,0 -1,-1 -1,-1c0,0 1,0 1,0z"
      stroke="black" fill="#2b2b2b" id="Zaznaczenie"/>
  </g>
</svg>