<?xml version="1.0" encoding="iso-8859-1"?>
<!-- Generator: Adobe Illustrator 16.0.0, SVG Export Plug-In . SVG Version: 6.00 Build 0)  -->
<!DOCTYPE svg PUBLIC "-//W3C//DTD SVG 1.1//EN" "http://www.w3.org/Graphics/SVG/1.1/DTD/svg11.dtd">
<svg version="1.1" id="Capa_1" xmlns="http://www.w3.org/2000/svg" xmlns:xlink="http://www.w3.org/1999/xlink" x="0px" y="0px"
	 width="208.081px" height="208.081px" viewBox="0 0 208.081 208.081" style="enable-background:new 0 0 208.081 208.081;"
	 xml:space="preserve">
<g>
	<path d="M140.457,0.394c0,0,7.837-2.476,10.869,4.987c0,0,11.624,12.909,12.891,22.213c0,0,0.481,2.841-2.283,4.375
		c-2.064,1.124-4.872,3.922-6.723,6.187c0,0-6.235,7.843-17.537,7.843c0,0-1.498-0.161-4.664,7.17
		c-1.607,3.742-5.998,9.378-9.219,13.713c-1.955,2.618-4.592,9.578-5.304,11.661c-1.565,4.494-2.027,15.637-0.384,18.803
		c0,0,5.176,12.243,6.576,17.674c0.092,0.329,2.497,7.447,1.285,17.708c-0.116,0.998-0.786,4.896-1.041,7.203
		c-0.372,3.301-0.25,10.133,1.017,13.25c1.212,2.983,4.853,5.742,5.87,13.506c1.028,7.581-1.157,18.541-0.311,25.13
		c0.475,3.684,2.137,8.951,9.225,12.337c0,0,6.729,1.631,3.708,3.908c0,0-7.757,0.293-12.306-1.382c0,0-7.752,0.615-8.763-2.259
		c0,0,0.019-2.253,0.847-4.08c0,0-1.705-11.277-7.258-18.693c-4.007-5.353-4.875-7.575-2.838-26.762c0,0-6.327-4.001-10.068-18.444
		c-1.096-4.25-2.786-11.575-4.141-17.019c0,0-9.715,20.386-8.884,30.634c0,0,4.625,10.504,5.237,14.499
		c0.518,3.416,0.411,8.926-1.023,13.755c-1.483,4.993,1.696,16.604,2.707,20.538c0,0,2.512,6.79-2.356,6.632
		c0,0-8.424-1.06-11.125,0.913c0,0-9.608,1.182-11.615,0.293c0,0-3.206-1.2,2.189-3.617c0,0,5.736-0.152,7.742-3.77
		c0,0,2.533-3.026,3.367-3.489c0,0-3.528-8.823-6.938-21.586c-1.303-4.914-2.177-16.246-2.975-21.251
		c-0.505-3.117,1.148-10.443,0.149-13.481c-2.625-8.05-6.677-14.176-0.351-33.521c0,0,3.438-8.12,5.396-12.69
		c2.667-6.235,2.862-17.527,0-26.731c0,0-5.718-8.162-6.056-15.999c0,0,0.682-5.124-7.587-4.98c0,0-6.223,1.363-16.499-8.175
		l-6.068-4.521c0,0-3.212-1.589,0.149-10.425c0,0,5.83-11.094,8.948-14.34l2.183-4.549c0,0,1.939-5.054,10.282-2.855
		c0,0,4.795,0.682,4.034,3.538c0,0,1.178,8.972-1.677,7.849c0,0-1.358-0.743-1.684-2.563c0,0-4.214-0.204-5.148-1.428
		c0,0-2.189,6.865-3.273,8.077c0,0,1.083,9.8,0.155,11.776c0,0,8.765-4.533,14.333,3.404c0,0,10.781-3.246,15.077,2.563
		c0,0,7.334,5.532,8.494-1.132l-0.158-4.01c0,0-1.023-2.415-1.264-4.153c0,0-1.854,1.133-2.451-3.86c0,0-1.087-3.248,1.184-2.719
		c0,0-3.796-9.883,6.564-12.602c0,0,13.472-3.081,12.291,11.627c0,0,4.89-1.145,0,7.395c0,0-1.452-0.329-1.179,0.32
		c0.174,0.38,0.436,4.458,0.436,4.458s0.329,6.418,5.889,5.355c0,0,9.931-6.957,14.735-3.023c0,0,6.32-8.007,14.833-3.766
		c0,0,2.691,0.441,3.459-1.888c0,0-5.316-4.311-4.037-16.087c0,0-0.414-4.153-2.29-3.182l-1.863,0.356c0,0-0.407,3.047-5.888,2.755
		c0,0,0.194,1.054-0.067,1.272c-0.858,0.731-3.744,0.579-4.725,0c-2.247-1.315-2.479-7.8,2.697-9.292L140.457,0.394z"/>
</g>
<g>
</g>
<g>
</g>
<g>
</g>
<g>
</g>
<g>
</g>
<g>
</g>
<g>
</g>
<g>
</g>
<g>
</g>
<g>
</g>
<g>
</g>
<g>
</g>
<g>
</g>
<g>
</g>
<g>
</g>
</svg>
