<?xml version="1.0" encoding="iso-8859-1"?>
<!-- Generator: Adobe Illustrator 16.0.0, SVG Export Plug-In . SVG Version: 6.00 Build 0)  -->
<!DOCTYPE svg PUBLIC "-//W3C//DTD SVG 1.1//EN" "http://www.w3.org/Graphics/SVG/1.1/DTD/svg11.dtd">
<svg version="1.1" id="Capa_1" xmlns="http://www.w3.org/2000/svg" xmlns:xlink="http://www.w3.org/1999/xlink" x="0px" y="0px"
	 width="41.5px" height="41.5px" viewBox="0 0 41.5 41.5" style="enable-background:new 0 0 41.5 41.5;" xml:space="preserve">
<g>
	<path d="M34.5,12.386V1c0-0.552-0.448-1-1-1H8C7.448,0,7,0.448,7,1v11.386c-1.04,0.604-1.75,1.729-1.75,3.031V34.75
		c0,1.303,0.71,2.43,1.75,3.031V40.5c0,0.552,0.448,1,1,1h25.5c0.552,0,1-0.448,1-1v-2.719c1.04-0.604,1.75-1.729,1.75-3.031V15.417
		C36.25,14.114,35.54,12.988,34.5,12.386z M32.5,2v9.917h-1.357c-0.072,0.748-0.658,1.333-1.379,1.333
		c-0.72,0-1.306-0.585-1.377-1.333h-0.789v-4.06c0-0.334-0.08-0.647-0.214-0.931c0.533-0.603,0.747-1.282,0.453-1.575
		c-0.297-0.297-0.989-0.076-1.599,0.473c-0.26-0.108-0.545-0.168-0.844-0.168h-9.29c-0.299,0-0.583,0.061-0.843,0.168
		c-0.608-0.548-1.301-0.771-1.599-0.472c-0.293,0.293-0.08,0.972,0.453,1.574c-0.133,0.284-0.213,0.597-0.213,0.931v4.06h-0.789
		c-0.072,0.748-0.658,1.333-1.378,1.333c-0.721,0-1.306-0.585-1.378-1.333H9V2H32.5z M17.64,11.917
		c0.078-1.657,1.434-2.979,3.11-2.979s3.033,1.322,3.109,2.979H17.64z M9,39.5v-1.25h23.5v1.25H9z"/>
</g>
<g>
</g>
<g>
</g>
<g>
</g>
<g>
</g>
<g>
</g>
<g>
</g>
<g>
</g>
<g>
</g>
<g>
</g>
<g>
</g>
<g>
</g>
<g>
</g>
<g>
</g>
<g>
</g>
<g>
</g>
</svg>
